/* XPM */
static char *door1721992144[] = {
/* columns rows colors chars-per-pixel */
"40 40 121 2 ",
"   c None",
".  c #170D0A",
"X  c #190E0B",
"o  c #17100E",
"O  c #1C110E",
"+  c #161615",
"@  c #1B1412",
"#  c #1E1816",
"$  c #171818",
"%  c #1C1C1C",
"&  c #21140F",
"*  c #231611",
"=  c #261814",
"-  c #2B1C15",
";  c #231D1B",
":  c #2D1E1A",
">  c #301F17",
",  c #2F2117",
"<  c #22201E",
"1  c #2B241F",
"2  c #312117",
"3  c #34231B",
"4  c #38271C",
"5  c #3C2A1E",
"6  c #1D1F20",
"7  c #1E2323",
"8  c #1F2829",
"9  c #232424",
"0  c #2E2522",
"q  c #242927",
"w  c #2C2926",
"e  c #242728",
"r  c #212A29",
"t  c #2C2D2B",
"y  c #302521",
"u  c #352D26",
"i  c #3D2B21",
"p  c #332D2A",
"a  c #2F302E",
"s  c #3F3026",
"d  c #34322E",
"f  c #3B342D",
"g  c #343533",
"h  c #3A3531",
"j  c #363836",
"k  c #3C3C35",
"l  c #373838",
"z  c #3D3E39",
"x  c #402D1F",
"c  c #412E21",
"v  c #453223",
"b  c #4A3625",
"n  c #4C3827",
"m  c #45342A",
"M  c #4C3728",
"N  c #47382C",
"B  c #4D3A29",
"V  c #533D2B",
"C  c #403F37",
"Z  c #4C3D30",
"A  c #3F403E",
"S  c #56402D",
"D  c #59422F",
"F  c #424037",
"G  c #4F4032",
"H  c #45433B",
"J  c #4B453D",
"K  c #4B493F",
"L  c #534335",
"P  c #5C4531",
"I  c #5F4833",
"U  c #584738",
"Y  c #614633",
"T  c #624935",
"R  c #6A4E39",
"E  c #6E513B",
"W  c #73553E",
"Q  c #414442",
"!  c #4A4740",
"~  c #454947",
"^  c #4D4A42",
"/  c #474B49",
"(  c #4B4D4B",
")  c #524D45",
"_  c #584F48",
"`  c #4D514F",
"'  c #555147",
"]  c #585246",
"[  c #565249",
"{  c #5A554B",
"}  c #5E594D",
"|  c #4E5251",
" . c #525553",
".. c #555856",
"X. c #5E5953",
"o. c #565A58",
"O. c #5C5D5C",
"+. c #615B4F",
"@. c #765740",
"#. c #795942",
"$. c #635D51",
"%. c #675F58",
"&. c #5F615F",
"*. c #676153",
"=. c #696255",
"-. c #60625E",
";. c #6D645A",
":. c #746A5E",
">. c #5E6260",
",. c #626665",
"<. c #656866",
"1. c #656A69",
"2. c #6A6C6A",
"3. c #6D706F",
"4. c #737674",
"5. c #747875",
"6. c #797F7D",
"7. c #7B807F",
"8. c #8C8C87",
"9. c #919491",
"0. c #939A99",
/* pixels */
"                          K } *.+.{ { { { { +.%.J J                             ",
"                k { ' $.} ^ ^ } ) ^ ^ [ } { $.' ) +.{ ' ^ } A <                 ",
"              $.) ) ^ ) } [ A k k H J J J ) ) k ) =.{ ^ K [ } { f               ",
"          =.$.) ! ^ _ ^ f u ; @ + o . . X o + @ 1 u d K [ { $.{ { H <           ",
"        k ' ' [ ! j ; @ . . X X O & & O X O X * X . X * < H *.[ ^ [ k +         ",
"      ^ [ ^ K k w + . X O & = X & = * = O * = * * X @ * & @ a K ^ ^ [ H %       ",
"      $.$.*.{ % X X X X = * = @ * > & = * = = * = O = = = & o % { *.) } C +     ",
"    [ ' ^ } h . X & & & > - , - * 3 - > = - 4 = - = , = , = o O h } ^ ^ +.# +   ",
"  K $.! ^ ' X . O = = * i : 3 - , v 5 3 - 4 s - : = > 3 : : X * O H } } *.k +   ",
"  $.$.^ ' t . O = = - = v : 3 : , s 4 3 - 3 4 3 > - > i 4 > * : & t } { $.+.7   ",
"  *.$.$.} # . O 3 - 2 = b 3 3 - , i , 5 3 4 i i i = i M b 5 = : - O { ^ ) +.q   ",
"  K ' [ K O . O c 5 2 > n v 3 , 3 v 4 b 3 4 n i > = c c 5 b : : 3 O K K H K e   ",
") ' [ H e . . & n b 4 5 V 5 i 5 3 n b 5 - 4 b 4 c : b V 5 v - 5 5 * q F { [ ' # ",
"$.{ { { % . . = b v v i I S n i i n 5 * . c b 5 M 2 B Y b b - c v = 7 { { ^ } 7 ",
"$.^ ^ } 6 . O 3 v 5 b x P n B b v B 4 - O 5 V 5 b 3 B V b L 2 c n 3 7 { K K } r ",
"$.^ ^ ^ 6 . O 3 3 x V c S 5 b B v V x 5 3 - v v V v c b x V 3 v 5 i 8 } ^ ^ } r ",
"$.^ ^ ) 6 X @ i Z Z U c N s N Z N L N N N N Z L U Z Z B 5 V i v 5 b q { } ^ } r ",
"$.$.^ } 7 % # 9 ` ` ` ( ( |  .[ &.5.3.&.2.4.5.5.2.,.1.X.m n i V S b 8 { *.*.$.7 ",
"+.} [ ' $ + e l < 6 6 t ....g g k / 1.o./ ..~ ` 7.| a ~ ` m 3 V D 5 * ' } } K + ",
"k H ^ H + $ w 6 $ 9 9 l | a q h g Q / t l A g  .| t 9 % ; i 3 m v 4 O F K K A + ",
"{ $.{ { % . o o O # * ; = * ; ; ; ; ; @ # ; ; ; * @ @ * > c > x 5 c * { $.[ } 8 ",
"$.[ H H 6 X * : : : 3 - x 2 5 3 - 3 > 2 - = > : 3 - = = 3 x = c c b 9 { ^ ^ } r ",
"$.k k H 6 X * 4 y c c i n 4 v c x V x b 4 3 i : c i 5 5 x b - B B i 8 { ^ ^ ) 8 ",
"*.} k H ; X = c M b 3 i V x v M V E b V c c B 4 v i b c b b - V c : 7 ' ^ ! H 8 ",
"$.[ H H % . - n b 5 = x R v B m B @.P Y v V Y v V c B V b x - b y > e ) ^ ^ [ e ",
"{ ) ' H % . - n V 5 5 m W M V b v Y V V v D W n V v V B b ) <.f = : 6 } $.$.{ % ",
"d K ^ k . . - D V c V M #.D V x y v V Y c Y E x M c V v 4 5.3.d X * X H ^ H k + ",
"{ { { [ @ O - I Y V V n #.D V x = c V V c V V 4 V c V v Z 9.0.O.w * @ H } { H $ ",
"$.{ { { % . - D Y D V n W V D V M R V V v x v b Y v V n 8.2.0 ; o.y 6 { $.*.+.7 ",
"} ! ! ! 6 . - P Y T R n W n R Y V @.V V M M Y Y D c M M %.h p %.3.y 7 { ' $.+.r ",
"^ ! J H % . - P V V Y v R V Y n V E V T M Y W V V 5 V V 4 p ~ | 0 = 8 ^ ^ ' ' 8 ",
"X.^ ) [ 7 O - B n D V x Y Y V v M D M Y v V E n V 5 M V M c * - 3 > 8 H ^ J J 8 ",
"{ +.$.{ % + ; m { +._ ^ +.{ _ _ { ;.+.{ +.%.:.%.;.%.%.L c b - c b y ; { { ' } % ",
"k H K F + $ # e l g l l ~ ` Q Q | ,.1.>.>.1.,.,.1...( &.J b - V P 3 X C K H C + ",
"$.$.$.^ $ + t j % 6 6 d ,. .p g g ~ ,.~ A | l ..7./ w a F s = B V 3 O ] $.{ } $ ",
"$.^ ' } % + % @ + ; 9 d g 6 9 p t l g ; t g a A g 6 6 # - n - v x 3 O { ) K +.8 ",
"$.^ ^ ' 6 . . X O & * O * = = * O = * @ O O * O * X O 5 b D 2 5 5 4 O ] ) J [ r ",
"$.{ ^ H 6 . & > = 3 2 & i : i = - c 3 - O & : : 3 * * c b V - c 5 4 & ] ^ J [ r ",
"*.*.$.{ 6 . = 3 = 4 2 = v i b 4 2 v 3 3 = 2 x 3 c = = v v b - v x 5 O ] [ [ $.r ",
"' $.$.^ + . = 4 , v 4 * 5 c v > , 5 4 v , 2 b 5 c * 4 n 3 v - v b 5 & J $.$.) % "
};
