/* XPM */
static char *_55f4b60df2a4499eaae2b68dca2c9f7BrsJ5XncERNFFLWq[] = {
/* columns rows colors chars-per-pixel */
"50 50 112 2 ",
"   c #212528",
".  c #212629",
"X  c #222629",
"o  c #22272A",
"O  c #23272A",
"+  c #23282B",
"@  c #24282B",
"#  c #24292C",
"$  c #252A2D",
"%  c #262A2D",
"&  c #262B2E",
"*  c #272B2E",
"=  c #272C2F",
"-  c #282C2F",
";  c #282D30",
":  c #292D30",
">  c #292E31",
",  c #2A2E31",
"<  c #2A2F32",
"1  c #2B2F32",
"2  c #2B3033",
"3  c #2C3033",
"4  c #2C3134",
"5  c #2D3134",
"6  c #2D3235",
"7  c #2E3235",
"8  c #2E3336",
"9  c #2F3336",
"0  c #2F3437",
"q  c #303437",
"w  c #303538",
"e  c #313538",
"r  c #313639",
"t  c #323639",
"y  c #32373A",
"u  c #33373A",
"i  c #33383B",
"p  c #34383B",
"a  c #34393C",
"s  c #35393C",
"d  c #353A3D",
"f  c #363A3D",
"g  c #363B3E",
"h  c #373B3E",
"j  c #373C3F",
"k  c #383C3F",
"l  c #383D40",
"z  c #393D40",
"x  c #393E41",
"c  c #3A3E41",
"v  c #3A3F42",
"b  c #3B3F42",
"n  c #3B4043",
"m  c #3C4043",
"M  c #3C4144",
"N  c #3D4144",
"B  c #3D4245",
"V  c #3E4245",
"C  c #3E4346",
"Z  c #3F4346",
"A  c #3F4447",
"S  c #404447",
"D  c #404548",
"F  c #414548",
"G  c #414649",
"H  c #424649",
"J  c #42474A",
"K  c #43474A",
"L  c #43484B",
"P  c #44484B",
"I  c #44494C",
"U  c #45494C",
"Y  c #454A4D",
"T  c #464A4D",
"R  c #464B4E",
"E  c #474B4E",
"W  c #474C4F",
"Q  c #484C4F",
"!  c #484D50",
"~  c #494D50",
"^  c #494E51",
"/  c #4A4E51",
"(  c #4A4F52",
")  c #4B4F52",
"_  c #4B5053",
"`  c #4C5053",
"'  c #4C5154",
"]  c #4D5154",
"[  c #4D5255",
"{  c #4E5255",
"}  c #4E5356",
"|  c #4F5356",
" . c #4F5457",
".. c #505457",
"X. c #505558",
"o. c #515558",
"O. c #515659",
"+. c #525659",
"@. c #52575A",
"#. c #53575A",
"$. c #53585B",
"%. c #54585B",
"&. c #54595C",
"*. c #55595C",
"=. c #555A5D",
"-. c #565A5D",
";. c #565B5E",
":. c #575B5E",
">. c #575C5F",
",. c #585D60",
"<. c #595E61",
"1. c #5A5F62",
/* pixels */
"(  ._ ' Y Y C G 4 x C A C w w Y G G n G C C C C C G Y G A L C w 2 < 4 g L ' W G ( Y G L Y L C x G G ",
"Y Y ' L G A A j w Y $.&.@.W x g x C G x C g A C G C C C A G A n 4 g C Y ' ( ( ' Y Y G G Y L C n x x ",
"j i C i i g g 4 x Y ( A C L G g w x x C x x C A A A G Y G G L Y & g i x G G Y ( G G G C G G A C x x ",
"i w g g g x w g C C C j g C A x w g w A C G C A C C C C G Y G j 4 C w 4 j x C x C G G C G L G G G C ",
"x g x C L x w Y G A L Y A C n w g g x x L A Y C G Y W G C x i < 4 C w i n x x j n G G C G Y Y Y Y G ",
"n j C C ( 4 i Y A G L G x x x 0 w C C x n G Y A L C x w < w C Y 0 w & w G C C C n C C n C G G G Y G ",
"n n Y L Y < C L C G G G C C n g g G G Y x C x x 4 < 4 x Y  .' G L x < 4 n L G C C A C x C C C G Y Y ",
"g C Y ( x < L A W L G G G A G Y Y L ( ' W 4 < < j Y @.@.@.&. .A L A g < w Y Y A Y L A C A C C G Y Y ",
"x x Y A 2 w n G Y L ' ( ' Y W ' ( W ' ( G w & A _ ' ' ( Y Y _ @.L G L w + x ( G L Y Y G C C G L Y G ",
"n x n 4 2 w L A x j C n C C Y  .'  .W ' j & C G ( Y Y ( ' Y L ' @.L G x 2 w n G Y Y Y Y G C G ( Y Y ",
"x 0 2 i Y x G C n x x j x x Y ' ' ( G C 0 i W C G Y G Y ' Y C ( C j n x 4 = 4 A Y G G Y Y G A A C S ",
"w < 4 G >.A x G A C n C C x G W  . .L 4 < x C x j ( ( G Y Y A L w x G x w 4 < 0 L A C L W ( Y G G S ",
"4 g G A L A j A x x g C A x C A Y G < & 4 j G g w (  .L G G A A g C C g x G g < 2 0 w i g x n C x g ",
"C G Y x j G x g C G n L G n x g x < 4 x C W _ Y w G ' ' Y L G C g x x w n ( Y C 2 4 w w i i i w 3 4 ",
"( C A C G G C 4 A ' W ( G G C w & < G Y C G G W x j Y @._ ( ( n x A Y C A ( ' ' n w 4 4 w 4 < 2 g C ",
"Y n G Y Y C Y w w _ ( ( G Y L w w ( C Y @.@.>.( G i G @.' &.$.x x A W L L '  ._ @.C 0 2 < = w G P Y ",
"L G G C Y L C i C w G ( G ( g < G &.&.$.,.&.' ( ` m < g P G G g i G ( G  .' ( @.( C C = 4 0 n Y G P ",
"G G C G Y W g C &.i 2 g g g w C ( $. ._ ' _ W Y ( Q q - < @ < < C G Y A @.&.@.&.( j x 4 x x x G G G ",
"L A C A Y L w ( Y _ x < w w 0 A Y _ _ ' ' ' ' Y G ( k w C G C x x n G n G Y G L C x i < g x Y G G S ",
"G C Y C Y x x _ ( _ ( C w & g G W ' @.$.@. .' L L _ x 4 w w w q i w g 0 4 w 0 0 w x < 2 g w ( G G G ",
"G G Y C G g Y G ( ( G G G = 0 G W ' @.@._ '  .L W Y x w q w w w 2 & < 4 w x g w 0 2 < C ( n G L G G ",
"Y G x x g g ( C G A W ( x w C i Y _ @.&.' ' ' L W L Y ' @.@.' ( ( A g 4 + & & < 2 < G (  .( x L Y G ",
"G C x x j w G L G Y G L x 0 g L ( '  .&.@.Y L C _ ' @.' ( G C Y W ' &.&.Y C 0 w 2 x @.( W ' C A Y G ",
"g g Y G ( 4 j Y Y Y G L g w g Y ( Y L ' _ G G L ( ( L L  .' G ( ( ' '  .Y G i j i ( ( ' ' ( Y x C x ",
"G Y A G Y g g G G C G G w 0 g j Y ( Y C C ( ( x _ Y W ' ( Y Y ' ( @.>.' C _ w X G L ( ' ' ' Y x 4 x ",
"Y Y G Y Y C 0 A G A A C g < < g S C _ g 4 ( C G P Y W ( Y Y (  .@.,.&.( G ' w 4 L G G Y ' ' Y x C Y ",
"G C C Y Y W 2 i x A x i x w < 0 k S G m w C Y Y ( ' _ Y G Y Y Y @.,.' G W ( < g G G L Y W ( Y C C L ",
"L G A G G L = & i A A j G G g < w x g Q Q k ( Y ( ( W L Y ( ( Y _ @.Y L ( ( & g G L W ( ( ( W G x L ",
"L L G Y G g 4 w + 2 x g G Y L 4 4 < G ( ' G G ( Y Y L Y ( ( ( Y W W L ( ( Y = g Y G Y ( ' ' ( G q C ",
"G G A G x < w G g & 4 w C ( @.C & < ` ( ( P C ( G Y W ( ( W ( ' W Y G ( Y Y < x G G W ' ' ' _ Y 4 m ",
"L L G n 0 2 < g G 2 < & 4 w x < & g G ..( C G G A L ( ( ( ( ' $.W W G L G G < C Y W ' @.' ' ' ' < 4 ",
"x A C g 4 G i 4 g i C 4 4 & 4 & 3 k g %.Q m m x W ( ( W Y W ( ( ( ' Y G G C & C ' ' ' @.@.@.@.' 4 4 ",
"4 x g 4 p P ( C - g ( x C m & < x p w Q P x g w ( @.G n G Y ( ( ` Q Y C S p 4 4 P ' @.' %.@.&.Y < 4 ",
"4 w 4 g G C C ' m w Y S ' C - g w g k w G g k g x j g C W ( Y _ Y ( ( x g < < < g Y @.@.:.@.@.Q & & ",
"3 q 4 k G S G Q G w 4 Y &.4 w < 4 g g q C ` Y G g w x n G _ Y Y G Y Q g 4 g x 4 X 4 g Y &.@.Y p 4 < ",
"< X 4 P P C G G k &.` 4 g w k k q w k x p ' ( G i 0 C L Y _ ( Y G Y g < G Y G G g q & < g x p 4 P C ",
"q & < x S Y ( x C ( ` C g m G Y g < w & < x ' ' W i w W ( L ( ( G q 4 x Q G G P G G x 4 < & 3 m p 4 ",
"C ( x < w m S x G G C ( G Y Y 4 G ( ..S 3 X < C _ x 4 G ( Y ( G g q C Q Y G Y C k G Y Y S g 4 k g p ",
"( &.' G g & 2 Y ( ( ( Y W i X W P ( Y $.' ( w X 4 4 w C Y _ Y i w ( ( C ' W C L G Y Y Y W L w j ( ( ",
"_ W Y @.@.G i < i A ( W i < ( ' C k C Y Y _ ,.G < & 4 0 w x g g ' G Y Y L G Y C G ( W Y G Y C ' @.@.",
"Y Y G G (  .' L w 4 0 4 = Y &.( x x G Y A L ( ( ' Y w < & 4 p Q W ( ( W Y Y G G G G ' Y Y A G @.W ( ",
"L W ( ( Y Y ( _ ' x < 4 i '  .x C n G Y A A Y G G G ( Y < < S ' ( ( ( W W W Y L C Y G ( x C ' W Y Y ",
"( ( ( _ ( Y Y ( L n w 4 < n G x C x A G C C G A L C G G w w ( Y ( ( ( Y Y Y Y L C A G A x (  .( Y ( ",
"' ( ( ( ' _ W G G G g 4 < x C C C n C C n C L G L Y G m x q Q ( ' ' ( Y L L G G G G L g W @.(  .( ( ",
"( _ ' ( ( ( W G Y ( C w 4 C A n G A C C C A G L G W ( G C 4 P ( _ ' ' W Y L Y L Y W x C @.W ( ( W ( ",
"W _ ' ( ( _ ( G L _ G w < x A C A A A A G G L Y Y C P G C 4 P Y W ' ' ( Y ( ( Y L C x ( W ( Y W W ( ",
"( ( ( ( ' ' ( G W Y g 4 2 A Y G C A A A G G G Y P G ( P x 3 C ' Y ( _ ( W ( W L C C ( ( G ( A ( ( ( ",
"_ ( ( '  .' W Y Y C w < = x L L G G A C C C C G Y Q Y C S 3 < P W ( ( Y Y W G n x @.@.Y ( C G Y Y ( ",
"( _ ' ' @.' W Y Y j 4 C 4 w ( G G G G G S C C A Y G Y Q S w 3 < S Y Y Y G x g C ' ( Y ( ( ( C G W _ ",
"W _ ' ' ' ( Y Y G w < x 4 w Y G G G G G S C C A Y G Y Y G x w < < 3 4 4 w x Y @.( Q L W ( W C G Y ( "
};
