/* XPM */
static char *image__2_1721992361[] = {
/* columns rows colors chars-per-pixel */
"40 40 199 2 ",
"   c #0F2533",
".  c #142635",
"X  c #152836",
"o  c #172A38",
"O  c #1A2D3A",
"+  c #1D313E",
"@  c #292C2F",
"#  c #2D2732",
"$  c #2D2A32",
"%  c #332A34",
"&  c #3A2D35",
"*  c #2D3335",
"=  c #25363F",
"-  c #2D363A",
";  c #323336",
":  c #323639",
">  c #3F3239",
",  c #353A3D",
"<  c #383C3E",
"1  c #4C0E0E",
"2  c #530F0E",
"3  c #4C0F10",
"4  c #521010",
"5  c #511716",
"6  c #5B1313",
"7  c #581D1E",
"8  c #641616",
"9  c #691716",
"0  c #6C1817",
"q  c #641618",
"w  c #6C1818",
"e  c #721A17",
"r  c #721A19",
"t  c #7C1C1B",
"y  c #4E2022",
"u  c #572527",
"i  c #5B2729",
"p  c #483838",
"a  c #573637",
"s  c #652222",
"d  c #69292A",
"f  c #712324",
"g  c #7A2422",
"h  c #742B29",
"j  c #6E2F30",
"k  c #683B3C",
"l  c #773230",
"z  c #4C443E",
"x  c #5A4436",
"c  c #684839",
"v  c #734932",
"b  c #7B4936",
"n  c #72503B",
"m  c #1A3543",
"M  c #213541",
"N  c #253A44",
"B  c #2A3C44",
"V  c #273E4B",
"C  c #343E42",
"Z  c #393F41",
"A  c #463C42",
"S  c #563C41",
"D  c #613F40",
"F  c #2D434A",
"G  c #2A434E",
"H  c #364245",
"J  c #3D4345",
"K  c #34454C",
"L  c #3D464A",
"P  c #3C4A4D",
"I  c #2A4652",
"U  c #344C53",
"Y  c #3B4C51",
"T  c #38525A",
"R  c #3A555B",
"E  c #365A66",
"W  c #3C5B63",
"Q  c #404547",
"!  c #4A4242",
"~  c #414649",
"^  c #444A4C",
"/  c #494B4D",
"(  c #554946",
")  c #514549",
"_  c #544C4C",
"`  c #59554F",
"'  c #454D51",
"]  c #494E51",
"[  c #554F53",
"{  c #465457",
"}  c #4B5254",
"|  c #46585C",
" . c #4C595D",
".. c #535356",
"X. c #505659",
"o. c #525B5C",
"O. c #624041",
"+. c #61504B",
"@. c #6E5C4E",
"#. c #625955",
"$. c #455C62",
"%. c #4C5D61",
"&. c #525D61",
"*. c #45656C",
"=. c #4A6469",
"-. c #4B656A",
";. c #536366",
":. c #51686E",
">. c #446972",
",. c #4B6C73",
"<. c #456F79",
"1. c #516D73",
"2. c #5A6F74",
"3. c #4B7077",
"4. c #51737B",
"5. c #59787C",
"6. c #64696B",
"7. c #6A7D7D",
"8. c #841E1B",
"9. c #86201B",
"0. c #8D221D",
"q. c #92231D",
"w. c #9B251E",
"e. c #9E281F",
"r. c #A6281F",
"t. c #892621",
"y. c #862823",
"u. c #922721",
"i. c #9E2921",
"p. c #89302A",
"a. c #9C352F",
"s. c #823433",
"d. c #A42720",
"f. c #A62B24",
"g. c #AC2B22",
"h. c #B42B21",
"j. c #BA2C21",
"k. c #AF3126",
"l. c #B6352B",
"z. c #C32F23",
"x. c #C63127",
"c. c #C4362C",
"v. c #CB362A",
"b. c #D43529",
"n. c #DB392C",
"m. c #C43B31",
"M. c #E43B2D",
"N. c #844D2F",
"B. c #8D5535",
"V. c #955733",
"C. c #AB4138",
"Z. c #B54233",
"A. c #CD4535",
"S. c #E24D3B",
"D. c #EC513E",
"F. c #8A564D",
"G. c #8A6156",
"H. c #B46C5A",
"J. c #9C6960",
"K. c #A87666",
"L. c #A77F73",
"P. c #CD4F41",
"I. c #CA5D4B",
"U. c #D65743",
"Y. c #D9664D",
"T. c #DA684F",
"R. c #DA6B54",
"E. c #F16F54",
"W. c #F47E60",
"Q. c #AA877A",
"!. c #E5876B",
"~. c #F68565",
"^. c #FE8967",
"/. c #FE8F6C",
"(. c #FF916D",
"). c #E58D71",
"_. c #4E7B83",
"`. c #4D7F88",
"'. c #517C84",
"]. c #507E88",
"[. c #6D7E81",
"{. c #51808A",
"}. c #58848B",
"|. c #5A8B94",
" X c #5E939B",
".X c #668588",
"XX c #728686",
"oX c #768985",
"OX c #638F95",
"+X c #67959C",
"@X c #679EA7",
"#X c #6A9DA3",
"$X c #65A1AB",
"%X c #6CA4AC",
"&X c #73A9AF",
"*X c #73ADB4",
"=X c #7AAEB2",
"-X c #76B3BB",
";X c #7BBCC4",
/* pixels */
"] } } ^ ^ J , < J ^ Z , J J J J J J J J ~ ~ J ~ Z * * * Z ] ] ^ / ^ ^ ^ ^ J J J ",
"~ ~ J J J < , ^ } } ^ J Z Z J Z Z J J J J L ~ ~ ~ < * < L ] ^ ] ^ ^ J ^ ~ J J < ",
", , < , < - < J J J J J Z : , J z n V.V.V.B.n z ~ : : , , ~ J ~ ~ ~ J J ~ J J J ",
"< < H ~ < J J J ^ J J Z , , < Z ( n B.V.V.B.n z , : : , * Z Z Z J J ~ J ^ ^ ^ ~ ",
"Z J J ] - J Q L ~ J J Z , Z J Z z c v N.N.b c z ^ Z : * , ~ Z Z J J J J Q ~ ~ ~ ",
"J J / Q * Q ^ Q ^ J J J J J ^ ] z x v v v v x ` ] ~ J : * Z ^ ^ ~ J J J J Q ^ ^ ",
"Z J ^ * : J ^ ^ ] ] ~ ^ ] ] } %.%.` @.@.@.@.#.o.o.{ ~ Z * * ~ ^ ^ ^ ~ J J ~ ^ ^ ",
", H , * , ~ Z J J J J ] } o.2..X.XoXoXoXoXoX7.5.=.;.{ ^ , * Z ~ / ^ ^ ~ J ~ ^ ^ ",
"Z * : ^ J J J J Z J Z L } %.5.#X*X=X=X=X=X&X+X}.,.$.P Z Z * * Z ^ ~ ~ / ^ J Q Q ",
"* , J } J J J J < J J J ' &.5.%X*X&X%X%X%X#X X`.3.| J H Z , * * , J < J ^ J Q J ",
"Z Q J Z J Z J J J ~ Z J J P *. X X|.'.'.'._.3.*.W U H C Z Z z H * * , < , , : : ",
"^ J J L J < J ] ^ ^ J J * C -.4.'.>.R R R R R R Y P J ^ Z ^ { ' H * * * * * , , ",
"^ Q ~ ~ ~ J , ~ ^ ] ~ J , L %.-.*.R U F F F F U Y H J ^ ^ ] } } } Z * * $ Z Q ^ ",
"Q L Q ^ ~ Z Q J < J J < < } &.&.| U F B F N B C H , J ^ ^ o.} o.' < , * , Z ^ ~ ",
"Q J J ^ ~ J ] ~ , * - , J } } } ' K B N N F - , < , H L z ] ] ] J < * , Z ~ ~ ~ ",
"~ ^ J ] J Q ^ } ~ < * * L ] } X.' H N N N N - , : : - , , , , , , : * < Z ^ ~ ~ ",
"Q J J J < ^ ^ ^ ^ Q ; ; A ] ..X.' K B N N F - C Z < < * * * * * * * Z ] Z ~ ~ ^ ",
"^ J H < < ^ J ^ ' ~ C : Z ] &.&.| U N + + N F P ^ / ^ J J : * * * Z ^ } ^ ~ ^ ~ ",
"J J J Q , J ^ ~ Q Q ; C ' { %.:.*.U + + + + B K P ^ ' o.X.^ C , , ^ ..] } ~ J J ",
"J J L ^ < < ^ ~ ~ J C C A $.-.<.>.U + X X O = F U { { o.} ^ J * J ' ] } ] ~ < Z ",
"^ ^ ^ ^ J , J L ' | $.%.:.:.4.>.E G + X . X + F K R ;.:.-. .Y , J ^ ' ] ^ ^ J Q ",
"Q Q Q Q J * , J | 5.+X#X#X|._.T V + X   . X O + F R ,.4.3.3.$.H ~ ~ ^ ] } ^ J ^ ",
"^ Q ^ ^ < * * H =.OX-X;X;X@X_.V X   X X X X . X m E <.`.{.'.,.Y ' ' ] ] ] ] Z J ",
"Q L L Z - , K U >. X$X$X X_.E m     X X X X . . + I E <.{.{._.>.%.$.X.} } ] Z , ",
"~ ~ J : : Z | >.].|.|.].>.E V m . . . o o o . . X m V E _.`.]._.1.-.o...} } Z ; ",
"Z Q , < _ #.6.7.XXXX[.6.[ A A & & % % # # # # $ $ ; , J $.:.4.4.1.;...[ ...., * ",
"; : < +.G.K.K.Q.Q.Q.L.J.F.s.s.l l h j d d u i i i i u p S S S ) ) a k O._ [ < @ ",
"* ; z F.I.!.!.).).).).R.P.c.c.c.l.l.f.i.u.t.0.8.y.g f s u y y y 7 i f j O.! > * ",
"@ u c H.!./././.(.(.^.E.D.M.M.M.n.b.z.h.r.r.d.d.w.q.8.e 6 4 3 1 2 9 t t d a a Z ",
", a.C.I.!.^.(.(.(.(.^.E.D.M.M.n.n.b.z.j.j.h.r.r.w.w.q.8.q 4 1 1 2 e 8.0.y.h h : ",
"P v.A.S.E.~.~.~.W.~.W.E.S.n.n.n.b.x.j.h.j.h.r.d.w.w.q.8.9 6 1 1 6 e 8.q.u.u.u.Z ",
"} x.c.A.Y.Y.R.Y.R.R.U.U.m.v.x.x.z.h.d.d.d.d.w.q.0.0.8.t 9 6 4 2 8 e 8.q.q.q.u.] ",
"^ g.k.k.l.Z.Z.Z.Z.Z.Z.l.k.k.r.h.d.w.0.0.0.0.0.9.8.t t w 9 8 6 8 9 w t 8.8.8.8.] ",
"/ w.e.e.i.w.e.i.d.i.e.i.e.w.e.e.w.0.9.t t t t t t r w q q q 9 q 9 r t 8.t t t ' ",
"} q.w.w.w.w.w.w.e.q.w.w.w.w.w.w.q.9.t t t t t t t r w q 9 9 q 9 q r t t t t t ] ",
"} w.w.w.w.w.w.w.w.w.w.w.w.w.w.w.e.9.t t t t t t t r w q q 9 9 8 w q t t t t t ] ",
"^ p.p.u.u.q.0.0.0.0.q.0.0.0.q.0.9.t e e e 0 e e w q q q 8 6 8 8 q 9 w r f f h ] ",
"} c O.l h t t t t t t t t t t t t 0 8 8 8 8 8 6 q 6 6 6 4 6 4 6 6 6 8 7 d a a ' ",
"^ [ ( a s w w 9 e 0 r 0 0 0 e 9 8 6 4 3 4 4 5 2 4 3 1 4 4 4 4 4 4 4 4 y p p ^ ] ",
"' } ] a i 9 9 9 8 8 8 8 8 8 8 8 6 6 3 1 1 1 1 1 3 3 1 1 3 3 3 1 3 3 3 y p > ^ ] "
};
