/* XPM */
static char *fire_corner__1_1721991530[] = {
/* columns rows colors chars-per-pixel */
"40 40 192 2 ",
"   c #030203",
".  c #090403",
"X  c #0D0904",
"o  c #0B0B09",
"O  c #110604",
"+  c #120D05",
"@  c #1A0E06",
"#  c #100F0C",
"$  c #1A0A08",
"%  c #151106",
"&  c #1B1605",
"*  c #1F1907",
"=  c #15120B",
"-  c #1B140B",
";  c #1D190F",
":  c #131311",
">  c #1D1A13",
",  c #2B0A09",
"<  c #251407",
"1  c #25170A",
"2  c #291D0E",
"3  c #3D160C",
"4  c #331909",
"5  c #221C12",
"6  c #2B1F15",
"7  c #211E19",
"8  c #391310",
"9  c #391C14",
"0  c #2B200F",
"q  c #272117",
"w  c #25221A",
"e  c #2A261E",
"r  c #2D291F",
"t  c #31261C",
"y  c #372B1F",
"u  c #2D2920",
"i  c #332E24",
"p  c #3C2F22",
"a  c #373127",
"s  c #383228",
"d  c #3B3429",
"f  c #3F382D",
"g  c #4A1C0D",
"h  c #50180E",
"j  c #5F1112",
"k  c #5F1D10",
"l  c #681813",
"z  c #432010",
"x  c #6F2013",
"c  c #493425",
"v  c #4B3424",
"b  c #413A2D",
"n  c #4D3828",
"m  c #523B2B",
"M  c #55402F",
"N  c #4A4336",
"B  c #564335",
"V  c #5B4434",
"C  c #5B4738",
"Z  c #5B4838",
"A  c #5D4A3B",
"S  c #6E423A",
"D  c #614D3C",
"F  c #73473F",
"G  c #5D4E41",
"H  c #5F5144",
"J  c #5F5448",
"K  c #6E4C43",
"L  c #744940",
"P  c #7A4D44",
"I  c #615245",
"U  c #615846",
"Y  c #62564B",
"T  c #695649",
"R  c #63594D",
"E  c #6A5A4B",
"W  c #735445",
"Q  c #74544B",
"!  c #7F5149",
"~  c #715C4A",
"^  c #655D52",
"/  c #6A5E52",
"(  c #745C53",
")  c #7C5A51",
"_  c #73604E",
"`  c #666056",
"'  c #696257",
"]  c #676158",
"[  c #6C655C",
"{  c #6E685E",
"}  c #736353",
"|  c #746659",
" . c #79655A",
".. c #74695C",
"X. c #7E685F",
"o. c #6E6960",
"O. c #716C62",
"+. c #7A6B61",
"@. c #7B7368",
"#. c #7A746A",
"$. c #A71F1D",
"%. c #882C18",
"&. c #99231D",
"*. c #A8231D",
"=. c #B82B1F",
"-. c #B4351F",
";. c #853A31",
":. c #BF2722",
">. c #BC3024",
",. c #A13A33",
"<. c #CA2C23",
"1. c #D22F27",
"2. c #CA3323",
"3. c #DC3C26",
"4. c #D93428",
"5. c #DA3C29",
"6. c #CB3F38",
"7. c #D33D31",
"8. c #8B453D",
"9. c #DF4426",
"0. c #DE4C26",
"q. c #D74229",
"w. c #DF5426",
"e. c #DF5B26",
"r. c #DA5829",
"t. c #C9403D",
"y. c #E14526",
"u. c #E05627",
"i. c #E15A27",
"p. c #DF6726",
"a. c #DD792B",
"s. c #E16427",
"d. c #E06B27",
"f. c #E17427",
"g. c #E27528",
"h. c #E27B28",
"j. c #8E4F47",
"k. c #81534B",
"l. c #9C554D",
"z. c #9C5B4D",
"x. c #875951",
"c. c #8B5C54",
"v. c #B7534B",
"b. c #9D624D",
"n. c #9F6E4F",
"m. c #83635A",
"M. c #A06F4F",
"N. c #A3655E",
"B. c #AA6E5F",
"V. c #827769",
"C. c #82796B",
"Z. c #93766D",
"A. c #827D74",
"S. c #887F75",
"D. c #C65145",
"F. c #E48429",
"G. c #E68C2A",
"H. c #E8972B",
"J. c #E09130",
"K. c #EAA22C",
"L. c #ECAB2D",
"P. c #EEB52F",
"I. c #EFBB2F",
"U. c #F0BD2F",
"Y. c #E7AB31",
"T. c #EFBC30",
"R. c #F0BE30",
"E. c #F1C330",
"W. c #F3CB34",
"Q. c #F4D232",
"!. c #F7E135",
"~. c #F8E535",
"^. c #FBEF35",
"/. c #F9E63A",
"(. c #FAEC3A",
"). c #FBF036",
"_. c #FBF13C",
"`. c #868276",
"'. c #868279",
"]. c #8A867A",
"[. c #8C897D",
"{. c #EDC747",
"}. c #EDC749",
"|. c #FBF240",
" X c #FBF24B",
".X c #FAEC5A",
"XX c #FBF251",
"oX c #FBF25D",
"OX c #FBF264",
"+X c #FBF268",
"@X c #8E8B81",
"#X c #918D82",
/* pixels */
"& +   . & & & & & & & < l $.l , h x =.3.4.y.u.0.%.g k %.<.&.4 & & & & & & & & & ",
"& +   . + & & & & & & z *.4.<.*.<.3.3.u.u.i.u.3.=.-.3.3.:.l < & & & & & & & & % ",
"& %     X & & & % & - 4 %.2.y.i.u.i.s.h.F.g.i.i.i.i.e.3.*.4 & & & & & & & % + . ",
"& %     . . X X X X X g =.3.i.g.h.F.H.P.E.H.G.H.G.f.0.:.l & + & % & + X + . . . ",
"% X     .     .   o 6 ;.4.0.s.F.H.P.Q.~.I.H.P.Q.L.p.0.1.&.3 . X , . + + % + % % ",
"                  8 8.v.4.0.f.K.E.Q.~.^.W.U.Q.~.E.F.e.9.5.*.l j j $             ",
".       . .   . 6 j.6.6.4.0.f.K.Q.(. X|.~.~.).~.E.G.p.p.e.9.<.l O     .     .   ",
"% % & % + . . . B N.7.y.u.h.G.W.).XXOXXX_.|.|.)./.R.P.L.p.9.>.8 .     . . % % % ",
"& & & & & & O X A N.7.u.h.R.Q./. XoX+X+XOXOXOX X).Q.L.G.w.7.,.9 .       X & & & ",
"& & & & & & + O A N.7.u.g.P.~.|.oX+X+X+X+X+XOX X!.E.H.d.0.D.P 2 . .   . . & & & ",
"& & & & & & & + A N.7.3.i.F.Y.W..X+X+X+X+XOXXX/.R.G.d.i.9.D.P 0 . .   . % & & & ",
"& & & & & & & + A Z.v.q.q.r.a.J.T.{.}.}.}.{.{.L.a.r.q.5.t.B.~ 0 +     . & & & & ",
"+ & & & & & % + V ) c.z.l.z.b.n.n.n.n.n.M.M.M.b.b.l.l.l.j.m.T 2 + .   . & 1 & & ",
". + + + % + . X B ) F ! k.k.! ! ) x.c.c.c.x.k.k.k.k.k.L F X.E 1 .       % & % + ",
".             . A S.+. .W ( } L S L ! P ! L S Q ( ~ W  .@.[.( -                 ",
"              . A [.[.`._ ..#.+.K K K K K K ( #.#...} `.].@X( =                 ",
"      . . X . + D #X[.[.C.} | / Y T E / | | | | | | C.[.].#X} - . X . . .   . . ",
"      . + & & < D #X@X[.].C.~ Q Q E ~ ~ ~ _ ~ ~ _ V.[.[.].#X} 1 + & % + O + . . ",
".       . + & 1 C [.#X].].[.@X].[.[.[.[.].[.].].[.[.[.[.].`.D 2 & & & & & & + . ",
".     . . . + & V @.].#X#X@X@X@X[.[.[.[.[.[.@X@X[.[.[.[.]...M 2 % & & & & + . . ",
"        . . . O m @.A.'.'.'.'.`.A.A.A.A.A.S.S.A.A.A.A.A.@.' M - . . . . . . . . ",
"            . . m @.#.O.O.O.o.o.[ ..o.o.O.O.O...o.[ O.[ O.O.B @ .   . . . . .   ",
"            . . n #.{ [ [ [ o.O.[ ..[ | o.[ [ [ [ [ { { [ O.A @ . .   . .   . . ",
"              . v O.[ [ [ T I m C C C C C C C D C E O.O.[ O.A @ . . . . . . . . ",
"                c o./ o.R G G I Y T Y Y Y Y R R Y I / [ [ o.C +                 ",
"                c o.[ / G C Y R ^ R ^ ^ ^ / ^ ^ ^ Y G / [ o.B $                 ",
"                c o.o.] m I Y ^ ^ R ^ ^ ^ ^ Y ^ ^ I I / [ o.B $                 ",
"              . c o./ ] H I Y Y R R ^ R ^ R Y ^ ^ I D ^ ] [ B #                 ",
"+ X   .       . c o.^ / G G J Y ^ R ^ R J Y Y Y ^ I C ^ ] [ B #                 ",
"% = = = X     X v / / ^ m G J J Y R R R R R Y Y R G C ^ / o.B +       X X   + % ",
"> % % % +   X & v / / ^ G G H J Y Y R R R J J J J G A ^ ^ [ B < o X % = #   X = ",
"r > % =     = & n / ^ ^ Y G G G H H H K G G G G G G R ^ ^ ] C < = & 5 = % X   + ",
"r r ; %   o * w v ' ` ^ ` ^ Z B V V V V V V B V Z D ` ` ^ ` B 2 q e e q : +   + ",
"w r ; o   7 r e v ` [ ` ^ ` ' ' ' ' [ [ [ [ o.' ' ` ^ ^ ` ` B r e e e e u 7 o o ",
"e r w   # a w r y B ^ ` ` ^ ^ ^ ^ ^ R ` ^ ' ' ^ ^ ^ ^ ^ R A a e e e e e u i >   ",
"r r w o : s r r e y B R U Y U U R R U U U R ^ R J U R R V p e e e e e e u i >   ",
"b s : o r e r w e e i v N v c c n n n n n n n n N v c c q e e e e e e e e e a # ",
"b b > o N a r e e r u r e e & % p t t r t r r r e r 0 X X e e e e e u e u u d : ",
"b b 7 : J f d a a a s a r u o   a r e a a a s s s e ;   o e e a a a a s s b b : ",
"b i : N ^ f f b f f f f d f >   d s s b b b f f b d r o # d d b f b b b b f f s "
};
