/* XPM */
static char *Wizard_401721990789[] = {
/* columns rows colors chars-per-pixel */
"40 40 221 2 ",
"   c #3D1E1D",
".  c #292C2F",
"X  c #3E362F",
"o  c #2B2F32",
"O  c #2E3335",
"+  c #2F363A",
"@  c #303537",
"#  c #323639",
"$  c #353A3C",
"%  c #3B3838",
"&  c #393C3D",
"*  c #4A1E1E",
"=  c #5A1D1C",
"-  c #7A1A1B",
";  c #733A0F",
":  c #783A0A",
">  c #7C2B1E",
",  c #6C3B15",
"<  c #643B1C",
"1  c #6E3E18",
"2  c #743B11",
"3  c #7C3119",
"4  c #412424",
"5  c #4B2524",
"6  c #492929",
"7  c #5A2C28",
"8  c #4D3828",
"9  c #573A28",
"0  c #47393A",
"q  c #5C3435",
"w  c #57383A",
"e  c #523D3D",
"r  c #662A27",
"t  c #732D2D",
"y  c #7A2828",
"u  c #663E21",
"i  c #68362C",
"p  c #623335",
"a  c #6C3C34",
"s  c #643A38",
"d  c #763835",
"f  c #7F410D",
"g  c #784317",
"h  c #57442A",
"j  c #5C422D",
"k  c #43423D",
"l  c #4A453A",
"z  c #4E443C",
"x  c #55463A",
"c  c #5A453C",
"v  c #5E5238",
"b  c #664022",
"n  c #63442B",
"m  c #6D4C28",
"M  c #774629",
"N  c #6B512B",
"B  c #7B5828",
"V  c #654634",
"C  c #695839",
"Z  c #745633",
"A  c #786337",
"S  c #373E41",
"D  c #393E41",
"F  c #4E3F49",
"G  c #503E40",
"H  c #3D4345",
"J  c #3E4648",
"K  c #3F494B",
"L  c #414446",
"P  c #4B4142",
"I  c #4A4747",
"U  c #4B4944",
"Y  c #414649",
"T  c #444A4C",
"R  c #494C4D",
"E  c #544D44",
"W  c #5A4648",
"Q  c #544B4B",
"!  c #555446",
"~  c #5B544A",
"^  c #464E51",
"/  c #494E51",
"(  c #524A52",
")  c #475052",
"_  c #4C5153",
"`  c #515455",
"'  c #545A57",
"]  c #525759",
"[  c #644A4E",
"{  c #645D4B",
"}  c #78624A",
"|  c #7B6D4E",
" . c #6C6D56",
".. c #777557",
"X. c #766D60",
"o. c #9B1917",
"O. c #961A1A",
"+. c #9B1A1B",
"@. c #B90905",
"#. c #B31F0F",
"$. c #A11E1F",
"%. c #832C0E",
"&. c #89291B",
"*. c #962F10",
"=. c #9A251B",
"-. c #B72811",
";. c #A23212",
":. c #8B1F20",
">. c #812624",
",. c #8B2322",
"<. c #862B28",
"1. c #9D2222",
"2. c #972A25",
"3. c #893924",
"4. c #893928",
"5. c #993926",
"6. c #A62624",
"7. c #B32526",
"8. c #B52A28",
"9. c #AB3328",
"0. c #B4362A",
"q. c #BA3D2E",
"w. c #C50D02",
"e. c #CA0C00",
"r. c #C31704",
"t. c #D31B01",
"y. c #DB1E00",
"u. c #DD2500",
"i. c #C9320B",
"p. c #D03209",
"a. c #E42D01",
"s. c #834A12",
"d. c #944E12",
"f. c #8A551B",
"g. c #AE5713",
"h. c #9F6514",
"j. c #894B2F",
"k. c #984C29",
"l. c #895924",
"z. c #984735",
"x. c #A64128",
"c. c #A9462A",
"v. c #B34B2E",
"b. c #A5542C",
"n. c #AC4B32",
"m. c #A94834",
"M. c #B94D33",
"N. c #AB5636",
"B. c #BA5636",
"V. c #93733B",
"C. c #B1672F",
"Z. c #A46635",
"A. c #A5713C",
"S. c #BE7A3C",
"D. c #D15110",
"F. c #E94906",
"G. c #E67011",
"H. c #C24D38",
"J. c #C25A37",
"K. c #C56339",
"L. c #C76D3D",
"P. c #E56D2A",
"I. c #98534A",
"U. c #AC5949",
"Y. c #827F57",
"T. c #9E7652",
"R. c #B77945",
"E. c #A36755",
"W. c #CA7940",
"Q. c #D07342",
"!. c #F4AF1D",
"~. c #DA9E3E",
"^. c #E58821",
"/. c #E5932D",
"(. c #FCEE2E",
"). c #FBF33B",
"_. c #908649",
"`. c #8D8858",
"'. c #B98446",
"]. c #AE914E",
"[. c #B6A952",
"{. c #BEB050",
"}. c #928F68",
"|. c #AF8F66",
" X c #BB9769",
".X c #BBB163",
"XX c #C98745",
"oX c #CE8945",
"OX c #CC9649",
"+X c #D2954A",
"@X c #D49D4C",
"#X c #D69651",
"$X c #F79050",
"%X c #C9BA5B",
"&X c #E9AC5C",
"*X c #CB9367",
"=X c #D29E67",
"-X c #C9BE69",
";X c #D8AB76",
":X c #FDA671",
">X c #ECB371",
",X c #E8B879",
"<X c #EDBC7E",
"1X c #E3D25E",
"2X c #F8DB56",
"3X c #FCEF41",
"4X c #D6C66A",
"5X c #E6D76A",
"6X c #F5D169",
"7X c #EFDF73",
"8X c #EFE076",
"9X c #F1E175",
"0X c #F5E57C",
"qX c #786484",
"wX c #9286B8",
"eX c #A198AE",
"rX c #A7A6B3",
"tX c #F0BF81",
"yX c #F9C785",
"uX c #A9A7C6",
"iX c #B1B4C8",
/* pixels */
"/ _ _ T Y H & 3.V T L % $.a.a.V H H H Y Y Y Y Y S # O @ S R / ^ R T J T T H H J ",
"Y Y J H H $ $ c Q / T e &.u.u.4.& D H H D Y Y H Y $ # S Y T ^ R R Y J Y Y H D D ",
"$ $ $ $ & # S J J H H 5.i.u.u.;.P H Y L Y Y Y Y Y $ $ # $ H H Y Y Y H J Y J J H ",
"$ S H H S & L q z J q i.y.t.r.t H Y H Y Y Y D S $ # # # # H S S H H L J T Y Y Y ",
"S H H Y # 0 p w P H 3.t.e.i.>.e L G D D D S S S J k & O # H H k H H H H H Y Y Y ",
"D H T H # P P Y Y J 4.w.w.u.#.t e 7 Q ' ~ D ^ / _ C v + # H ! A T H H H H Y T T ",
"S L T $ # Y T T I d +.w.e.F.G.-.y x  XtXtXX./ _ ) Z C $ + # z B U K Y H H Y Y T ",
"S S S @ $ H L H c -.@.t.a.!.(.h.O.} tX$X:XI.^ / ) V B E $ % N m U T T Y Y Y T T ",
"& @ # Y H H H H D t @.p.!.(.).A.r } <X:XtXE.E `./ h s.B l m s.b T K T T T J Y H ",
"@ # H R H H H H & w *.^.(.).3X@Xk.z.;XyXtX|.j.].~ k < s.h.d.b X k l S J Y H H H ",
"H H J H H H H H w >.<./.2X6X2XP.T.A.R.=X=Xm.R.| l.v N d.D.;.m h B h # # & $ & # ",
"Y H J H H $ H R I w <.D.&X>X~.i.i B T.N.z.n.V.E f l.l.s.t.*.f.l.f 8 + + o @ $ & ",
"Y J Y Y Y H $ J R R t p./.#XP.&.6   8 5 * 7 9 q j g n f g.d.n g b & @ O @ & L Y ",
"Y Y J Y J H H H H H k 3.D.J.Q.> = r 5 4 6 6 6 <.0 & k b f g ! ` T H # @ $ L T Y ",
"Y H H R Y H R J $ # + k T.3.XXv.+.$.,.* 4 4 Z 5.% $ H l g n ) ) H $ @ $ S Y Y Y ",
"Y Y Y Y H H R ) J $ + & A 3.C.9.+.o.6.2.V.= '.n.0 $ l |.=X X~ + $ # O & D Y Y Y ",
"Y H H H H Y R R T H # % M b.6.$.,.o.o.0.@X=.oXM.M.A.U.,XyX;X{ . O @ S T H Y Y T ",
"Y H H S $ Y J Y T J S $ F y O.<.[ >.O.0.#X8.oXM.v.Z.- T.'.T.T O @ S T _ T Y Y Y ",
"H H H H $ J Y Y Y Y $ $ J I s Q / s O.9.#X8.oXM.5.l.- V ; h $ + $ T _ / / Y H H ",
"H H Y Y $ H Y Y Y D # # H T T Y T I y =.+X8.oXm.W ~ W W 2 h S + H T / _ _ Y $ S ",
"Y Y Y T H # H H H S # O $ L Y H S K y o.B.*X*XE./ _ ] ~ 2 j H # H T T / / Y S J ",
"T J Y T H O # H H S S # @ & D L S T p y I.uXiXeX` _ ] E 2 n S # H T ^ / / T H J ",
"Y Y Y Y $ + + # & S Y H # # S T T ..} 5 F wXuXrX}./ ^ E 2 j S $ J T / _ / T D F ",
"T Y H H @ # # O O $ L Y $ o D /  .%X4XV 5 qXwXeX[.Y.T z 2 j $ $ T T _ _ _ / S % ",
"Y J H # @ $ & @ @ O # $ O O F  .%X1X8Xm.:.F ( [ A._.` l ; 9 $ H T / _ _ ` _ & @ ",
"& H & $ H S $ $ S $ # O o # S `.5X1X8Xv.2.V * Z k.{.`.z ; 9 @ $ T _ ] ] ] ` D o ",
"# # # & L Y & & P Y D O O # & `.5X7X0Xm.x.'.2.OXv.].| h ; 9 O O F T ] ] ] / S . ",
"O O & Y L Y Y H D Y H + @ @ & .X5X5X8Xv.c.oX8.+Xc.Z.{.B ; 8 $ @ @ D Y / _ Y # @ ",
"o . & Y Y Y L T Y D D S $ + ~ %X9X8X>X9.c.oX8.#X9.b.%Xf.< D Y D $ # # & & $ & S ",
"$ $ $ S L L F T T H F H D S  .-X4X].H.o.c.oX8.oXv.b.V.g < T T Y L H S # # # $ $ ",
"T T H $ # S J Y T T S S D T T  .X.2.7.+.c.oX8.J.L.4.z , u T Y Y J T T Y H $ H H ",
"/ / R T H $ S H T H $ H K F Y R G 7.7.+.c.oX7.q.+X2.s 1 u T Y Y J R R Y Y Y _ _ ",
"R T T / ^ T H $ @ @ H / T H H Y d 7.7.+.m.oX7.q.oX=.s 1 u T T Y T T T T Y ^ _ ^ ",
"/ / / T R ^ R H O + H T H H H I 2.7.7.$.9.W.7.q.OXO.a 2 u / T T Y Y Y L Y _ R T ",
"_ / / / / R T H + + # H H H H e 1.7.7.+.2.v.0.q.XX9.3 ; b T T T J Y H Y / _ _ R ",
"_ _ / / ^ T T T H + # H H H z >.O.$.7.+.O.B.K.8.B.C.%.: u Y T Y T Y H / _ / / / ",
"T _ _ / / ^ T R D # $ L H J d +.O.+.$.+.+.L.K.7.J.S.%.2 x R / T Y Y T R T ^ R ^ ",
"_ / ) ` _ T T Y $ @ $ Y Y J p :.:.O.+.O.+.Q.K.7.J.S.%.1 I ^ T Y Y R ^ R T Y T / ",
"/ / _ ` _ T T S # @ # Y Y Y P G q O.O.O.+.L.L.6.z.Z.%.1 I Y H L T _ / ^ T J T / ",
"/ _ _ ` / / T $ @ $ # Y T J T J e O.O.O.O.Q.L.6.0 i %.2 & & L T / / ^ R T H T / "
};
